<svg width="96" height="96" viewBox="0 0 96 96" fill="none" xmlns="http://www.w3.org/2000/svg">
  <rect x="8" y="8" width="80" height="80" rx="20" fill="#3A7AFE"/>
  <path d="M65 31H31C28.7909 31 27 32.7909 27 35V61C27 63.2091 28.7909 65 31 65H65C67.2091 65 69 63.2091 69 61V35C69 32.7909 67.2091 31 65 31Z" stroke="white" stroke-width="6" stroke-linejoin="round"/>
  <path d="M52 48C52 52.4183 48.4183 56 44 56C39.5817 56 36 52.4183 36 48C36 43.5817 39.5817 40 44 40C48.4183 40 52 43.5817 52 48Z" stroke="white" stroke-width="6"/>
  <path d="M61.5 39.5V39.51" stroke="white" stroke-width="5" stroke-linecap="round" stroke-linejoin="round"/>
</svg>

